<svg xmlns="http://www.w3.org/2000/svg" width="1111" height="292" fill="none"><rect width="1111" height="292" fill="#E7816B" rx="15"/><mask id="a" width="1111" height="292" x="0" y="0" maskUnits="userSpaceOnUse" style="mask-type:luminance"><rect width="1111" height="292" fill="#fff" rx="15"/></mask><g mask="url(#a)"><g clip-path="url(#b)"><circle cx="965" cy="292" r="146" fill="url(#c)" opacity=".309" transform="rotate(-90 965 292)"/><circle cx="673" cy="292" r="146" fill="url(#d)" opacity=".309"/><circle cx="381" cy="292" r="146" fill="url(#e)" opacity=".309" transform="rotate(90 381 292)"/></g><g clip-path="url(#f)"><circle cx="965" r="146" fill="url(#g)" opacity=".309" transform="rotate(-90 965 0)"/><circle cx="673" r="146" fill="url(#h)" opacity=".309"/></g></g><defs><linearGradient id="c" x1="819" x2="1111" y1="438" y2="438" gradientUnits="userSpaceOnUse"><stop stop-color="#5D0202" stop-opacity=".01"/><stop offset="1" stop-color="#5D0202" stop-opacity=".498"/></linearGradient><linearGradient id="d" x1="527" x2="819" y1="438" y2="438" gradientUnits="userSpaceOnUse"><stop stop-color="#5D0202" stop-opacity=".01"/><stop offset="1" stop-color="#5D0202" stop-opacity=".498"/></linearGradient><linearGradient id="e" x1="235" x2="527" y1="438" y2="438" gradientUnits="userSpaceOnUse"><stop stop-color="#5D0202" stop-opacity=".01"/><stop offset="1" stop-color="#5D0202" stop-opacity=".498"/></linearGradient><linearGradient id="g" x1="819" x2="1111" y1="146" y2="146" gradientUnits="userSpaceOnUse"><stop stop-color="#5D0202" stop-opacity=".01"/><stop offset="1" stop-color="#5D0202" stop-opacity=".498"/></linearGradient><linearGradient id="h" x1="527" x2="819" y1="146" y2="146" gradientUnits="userSpaceOnUse"><stop stop-color="#5D0202" stop-opacity=".01"/><stop offset="1" stop-color="#5D0202" stop-opacity=".498"/></linearGradient><clipPath id="b"><path fill="#fff" d="M1111 146H235v292h876z"/></clipPath><clipPath id="f"><path fill="#fff" d="M1111-146H527v292h584z"/></clipPath></defs></svg>